<mxfile host="app.diagrams.net" modified="2024-04-20T02:38:37.658Z" agent="Mozilla/5.0 (Windows NT 10.0; Win64; x64) AppleWebKit/537.36 (KHTML, like Gecko) Chrome/124.0.0.0 Safari/537.36" version="24.2.7" etag="mKFONCAK8Z6tGgKVHo2y" type="github">
  <diagram name="Page-1" id="FrjhtaQiOdXk2FxC9QzU">
    <mxGraphModel>
      <root>
        <mxCell id="0" />
        <mxCell id="1" parent="0" />
      </root>
    </mxGraphModel>
  </diagram>
</mxfile>
